<?xml version="1.0" encoding="iso-8859-1"?>
<!-- Generator: Adobe Illustrator 19.0.0, SVG Export Plug-In . SVG Version: 6.00 Build 0)  -->
<svg version="1.1" id="Layer_1" xmlns="http://www.w3.org/2000/svg" xmlns:xlink="http://www.w3.org/1999/xlink" x="0px" y="0px"
	 viewBox="0 0 504.123 504.123" style="enable-background:new 0 0 504.123 504.123;" xml:space="preserve">
<g>
	<path style="fill:#997A59;" d="M26.27,469.559c-0.441,1.568-2.481,2.355-4.576,1.772l0,0c-2.095-0.583-3.45-2.324-3.001-3.891
		l48.073-171.756c0.449-1.568,2.497-2.363,4.6-1.772l0,0c2.087,0.583,3.434,2.324,2.993,3.891L26.27,469.559z"/>
	<path style="fill:#997A59;" d="M479.004,469.559c0.457,1.568,2.481,2.355,4.592,1.772l0,0c2.079-0.583,3.442-2.324,2.985-3.891
		l-48.073-171.756c-0.441-1.568-2.497-2.363-4.592-1.772l0,0c-2.095,0.583-3.434,2.324-3.001,3.891L479.004,469.559z"/>
</g>
<path style="fill:#A2B9BC;" d="M261.829,189.7c0,5.081-4.112,9.192-9.192,9.192l0,0c-5.081,0-9.2-4.112-9.2-9.192V30.854
	c0-5.081,4.12-9.192,9.2-9.192l0,0c5.081,0,9.192,4.112,9.192,9.192V189.7z"/>
<path style="fill:#FFA300;" d="M443.652,474.585v-163.69c0-14.596-7.782-28.042-20.401-35.344l-150.229-86.749
	c-12.619-7.27-28.184-7.27-40.802,0L82.022,275.543c-12.627,7.31-20.401,20.756-20.401,35.344v163.698H443.652z"/>
<polygon style="fill:#FFC200;" points="443.652,373.713 441.439,371.507 424.22,388.726 407.009,371.507 389.79,388.734 
	372.594,371.507 355.359,388.734 338.156,371.507 320.929,388.734 303.734,371.507 286.499,388.734 269.273,371.507 
	252.062,388.726 234.843,371.507 217.624,388.734 200.413,371.507 183.194,388.734 165.983,371.507 148.764,388.734 
	131.552,371.507 114.334,388.734 97.107,371.507 79.904,388.726 62.677,371.507 61.621,372.563 61.621,412.617 68.072,406.166 
	85.283,423.385 102.502,406.158 119.713,423.385 136.932,406.158 154.144,423.385 171.362,406.158 188.574,423.385 205.792,406.158 
	223.019,423.385 240.238,406.166 257.457,423.385 274.668,406.158 291.887,423.385 309.098,406.158 326.317,423.385 
	343.528,406.158 360.747,423.385 377.966,406.158 395.193,423.385 412.404,406.166 429.623,423.385 443.652,409.356 "/>
<polygon style="fill:#B5440B;" points="320.567,473.285 252.629,320.992 184.706,473.285 "/>
<polygon style="fill:#7A300B;" points="250.549,473.285 252.629,320.992 184.706,473.285 "/>
<path style="fill:#FFC200;" d="M443.652,310.894c0-14.596-7.782-28.042-20.401-35.344l-150.229-86.749
	c-12.619-7.27-28.184-7.27-40.802,0L82.022,275.543c-12.627,7.31-20.401,20.756-20.401,35.344"/>
<g>
	<polygon style="fill:#65930C;" points="56.485,482.462 28.247,454.215 0,482.462 	"/>
	<polygon style="fill:#65930C;" points="90.915,482.462 62.677,454.215 34.422,482.462 	"/>
	<polygon style="fill:#65930C;" points="125.353,482.462 97.107,454.215 68.852,482.462 	"/>
	<polygon style="fill:#65930C;" points="159.783,482.462 131.552,454.215 103.306,482.462 	"/>
	<polygon style="fill:#65930C;" points="194.213,482.462 165.983,454.215 137.728,482.462 	"/>
	<polygon style="fill:#65930C;" points="228.643,482.462 200.413,454.215 172.158,482.462 	"/>
	<polygon style="fill:#65930C;" points="263.089,482.462 234.843,454.215 206.596,482.462 	"/>
	<polygon style="fill:#65930C;" points="297.519,482.462 269.273,454.215 241.042,482.462 	"/>
	<polygon style="fill:#65930C;" points="331.965,482.462 303.734,454.215 275.487,482.462 	"/>
	<polygon style="fill:#65930C;" points="366.387,482.462 338.156,454.215 309.902,482.462 	"/>
	<polygon style="fill:#65930C;" points="400.809,482.462 372.594,454.215 344.34,482.462 	"/>
	<polygon style="fill:#65930C;" points="435.263,482.462 407.009,454.215 378.77,482.462 	"/>
	<polygon style="fill:#65930C;" points="469.693,482.462 441.439,454.215 413.2,482.462 	"/>
	<polygon style="fill:#65930C;" points="504.123,482.462 475.876,454.215 447.63,482.462 	"/>
</g>
<polygon style="fill:#FF4800;" points="256.78,33.367 256.78,116.641 364.765,74.996 "/>
<polygon style="fill:#CC3715;" points="256.78,62.952 256.78,116.641 364.765,74.996 "/>
<g>
</g>
<g>
</g>
<g>
</g>
<g>
</g>
<g>
</g>
<g>
</g>
<g>
</g>
<g>
</g>
<g>
</g>
<g>
</g>
<g>
</g>
<g>
</g>
<g>
</g>
<g>
</g>
<g>
</g>
</svg>
