<?xml version="1.0" encoding="utf-8"?>
<!-- Generator: Adobe Illustrator 22.0.0, SVG Export Plug-In . SVG Version: 6.00 Build 0)  -->
<svg version="1.1" id="Capa_1" xmlns="http://www.w3.org/2000/svg" xmlns:xlink="http://www.w3.org/1999/xlink" x="0px" y="0px"
	 viewBox="0 0 490 490" style="enable-background:new 0 0 490 490;" xml:space="preserve">
<polygon points="128.3,222.9 146.1,289.6 165.2,289.6 186.9,200.4 168.7,200.4 155,262.7 139.4,200.4 117.9,200.4 101.6,261.7 
	88.2,200.4 69.7,200.4 91,289.6 110.6,289.6 "/>
<polygon points="228.3,289.6 246,222.9 263.8,289.6 282.9,289.6 304.6,200.4 286.4,200.4 272.7,262.7 257.1,200.4 235.6,200.4 
	219.3,261.7 205.9,200.4 187.4,200.4 208.7,289.6 "/>
<polygon points="345.9,289.6 363.7,222.9 381.4,289.6 400.6,289.6 422.2,200.4 404.1,200.4 390.4,262.7 374.7,200.4 353.3,200.4 
	337,261.7 323.5,200.4 305.1,200.4 326.4,289.6 "/>
<path d="M246,0C110.9,0,1,109.9,1,245s109.9,245,245,245s245-109.9,245-245S381.1,0,246,0z M246,473.7
	C119.9,473.7,17.3,371.1,17.3,245S119.9,16.3,246,16.3S474.7,118.9,474.7,245S372.1,473.7,246,473.7z"/>
</svg>
