<?xml version="1.0" encoding="iso-8859-1"?>
<!-- Generator: Adobe Illustrator 19.0.0, SVG Export Plug-In . SVG Version: 6.00 Build 0)  -->
<svg xmlns="http://www.w3.org/2000/svg" xmlns:xlink="http://www.w3.org/1999/xlink" version="1.1" id="Capa_1" x="0px" y="0px" viewBox="0 0 512 512" style="enable-background:new 0 0 512 512;" xml:space="preserve" width="512px" height="512px">
<g>
	<g>
		<rect x="323.5" y="376.5" width="30" height="30" fill="#999999"/>
	</g>
</g>
<g>
	<g>
		<rect x="203.5" y="376.5" width="30" height="30" fill="#999999"/>
	</g>
</g>
<g>
	<g>
		<rect x="263.5" y="376.5" width="30" height="30" fill="#999999"/>
	</g>
</g>
<g>
	<g>
		<path d="M437,271H120c-41.355,0-75,33.645-75,75v6.897l-45,29.5v18.205l45,29.5V437c0,41.355,33.645,75,75,75h317    c41.355,0,75-33.645,75-75v-91C512,304.645,478.355,271,437,271z M482,437c0,24.813-20.187,45-45,45H120    c-24.813,0-45-20.187-45-45v-23.103L40.834,391.5L75,369.103V346c0-24.813,20.187-45,45-45h317c24.813,0,45,20.187,45,45V437z" fill="#999999"/>
	</g>
</g>
<g>
	<g>
		<rect x="323.5" y="105.5" width="30" height="30" fill="#999999"/>
	</g>
</g>
<g>
	<g>
		<rect x="203.5" y="105.5" width="30" height="30" fill="#999999"/>
	</g>
</g>
<g>
	<g>
		<rect x="263.5" y="105.5" width="30" height="30" fill="#999999"/>
	</g>
</g>
<g>
	<g>
		<path d="M437,0H120C78.645,0,45,33.645,45,75v6.897l-45,29.5v18.205l45,29.5V166c0,41.355,33.645,75,75,75h317    c41.355,0,75-33.645,75-75V75C512,33.645,478.355,0,437,0z M482,166c0,24.813-20.187,45-45,45H120c-24.813,0-45-20.187-45-45    v-23.103L40.834,120.5L75,98.103V75c0-24.813,20.187-45,45-45h317c24.813,0,45,20.187,45,45V166z" fill="#999999"/>
	</g>
</g>
<g>
</g>
<g>
</g>
<g>
</g>
<g>
</g>
<g>
</g>
<g>
</g>
<g>
</g>
<g>
</g>
<g>
</g>
<g>
</g>
<g>
</g>
<g>
</g>
<g>
</g>
<g>
</g>
<g>
</g>
</svg>
